<svg class="railroad-diagram" width="344.5" height="198" viewBox="0 0 344.5 198" xmlns="http://www.w3.org/2000/svg" xmlns:xlink="http://www.w3.org/1999/xlink">
    <g transform="translate(.5 .5)">
    <g>
    <path d="M20 89v20m10 -20v20m-10 -10h20"></path>
    </g>
    <g>
    <path d="M40 99h0"></path>
    <path d="M304.5 99h0"></path>
    <path d="M40 99a10 10 0 0 0 10 -10v-59a10 10 0 0 1 10 -10"></path>
    <g>
    <path d="M60 20h224.5"></path>
    </g>
    <path d="M284.5 20a10 10 0 0 1 10 10v59a10 10 0 0 0 10 10"></path>
    <path d="M40 99h20"></path>
    <g>
    <path d="M60 99h0"></path>
    <path d="M284.5 99h0"></path>
    <path d="M60 99h10"></path>
    <g>
    <path d="M70 99h0"></path>
    <path d="M274.5 99h0"></path>
    <path d="M70 99a10 10 0 0 0 10 -10v-10a10 10 0 0 1 10 -10"></path>
    <g class="non-terminal ">
    <path d="M90 69h21.25"></path>
    <path d="M233.25 69h21.25"></path>
    <rect x="111.25" y="58" width="122" height="22"></rect>
    <text x="172.25" y="73">if statement</text>
    </g>
    <path d="M254.5 69a10 10 0 0 1 10 10v10a10 10 0 0 0 10 10"></path>
    <path d="M70 99a10 10 0 0 0 10 -10v-40a10 10 0 0 1 10 -10"></path>
    <g class="non-terminal ">
    <path d="M90 39h0"></path>
    <path d="M254.5 39h0"></path>
    <rect x="90" y="28" width="164.5" height="22"></rect>
    <text x="172.25" y="43">include statement</text>
    </g>
    <path d="M254.5 39a10 10 0 0 1 10 10v40a10 10 0 0 0 10 10"></path>
    <path d="M70 99h20"></path>
    <g class="terminal ">
    <path d="M90 99h55.25"></path>
    <path d="M199.25 99h55.25"></path>
    <rect x="145.25" y="88" width="54" height="22" rx="10" ry="10"></rect>
    <text x="172.25" y="103">Text</text>
    </g>
    <path d="M254.5 99h20"></path>
    <path d="M70 99a10 10 0 0 1 10 10v10a10 10 0 0 0 10 10"></path>
    <g class="non-terminal ">
    <path d="M90 129h12.75"></path>
    <path d="M241.75 129h12.75"></path>
    <rect x="102.75" y="118" width="139" height="22"></rect>
    <text x="172.25" y="133">print variable</text>
    </g>
    <path d="M254.5 129a10 10 0 0 0 10 -10v-10a10 10 0 0 1 10 -10"></path>
    <path d="M70 99a10 10 0 0 1 10 10v40a10 10 0 0 0 10 10"></path>
    <g class="non-terminal ">
    <path d="M90 159h38.25"></path>
    <path d="M216.25 159h38.25"></path>
    <rect x="128.25" y="148" width="88" height="22"></rect>
    <text x="172.25" y="163">for loop</text>
    </g>
    <path d="M254.5 159a10 10 0 0 0 10 -10v-40a10 10 0 0 1 10 -10"></path>
    </g>
    <path d="M274.5 99h10"></path>
    <path d="M70 99a10 10 0 0 0 -10 10v59a10 10 0 0 0 10 10"></path>
    <g>
    <path d="M70 178h204.5"></path>
    </g>
    <path d="M274.5 178a10 10 0 0 0 10 -10v-59a10 10 0 0 0 -10 -10"></path>
    </g>
    <path d="M284.5 99h20"></path>
    </g>
    <path d="M 304.5 99 h 20 m -10 -10 v 20 m 10 -20 v 20"></path>
    </g>
    <style>
        svg {
            background-color: hsl(30,20%,95%);
        }
        path {
            stroke-width: 3;
            stroke: black;
            fill: rgba(0,0,0,0);
        }
        text {
            font: bold 14px monospace;
            text-anchor: middle;
            white-space: pre;
        }
        text.diagram-text {
            font-size: 12px;
        }
        text.diagram-arrow {
            font-size: 16px;
        }
        text.label {
            text-anchor: start;
        }
        text.comment {
            font: italic 12px monospace;
        }
        g.non-terminal text {
            /&#42;font-style: italic;&#42;/
        }
        rect {
            stroke-width: 3;
            stroke: black;
            fill: hsl(120,100%,90%);
        }
        rect.group-box {
            stroke: gray;
            stroke-dasharray: 10 5;
            fill: none;
        }
        path.diagram-text {
            stroke-width: 3;
            stroke: black;
            fill: white;
            cursor: help;
        }
        g.diagram-text:hover path.diagram-text {
            fill: #eee;
        }</style>
    </svg>
    